{"title":"The Fifth Element 1997 720p Brrip x264 SSloco","uid":11982059,"size":727574199,"categoryP":"video","categoryS":"hd___movies","magnet":"?xt=urn:btih:1c60115390e5afb6a10344985aa52a052a69c32a&amp;dn=The+Fifth+Element+1997+720p+Brrip+x264+SSloco&amp;tr=udp%3A%2F%2Ftracker.openbittorrent.com%3A80&amp;tr=udp%3A%2F%2Fopen.demonii.com%3A1337&amp;tr=udp%3A%2F%2Ftracker.coppersurfer.tk%3A6969&amp;tr=udp%3A%2F%2Fexodus.desync.com%3A6969","seeders":1,"leechers":0,"uploader":"myhoes14","files":1,"time":1433203742,"description":"Source:The Fifth Element 1080p Bluray Judas\n\nMedia Info\n\n\nFormat : MPEG-4\nFormat profile : Base Media\nCodec ID : isom\nFile size : 694 MiB\nDuration : 2h 5mn\nOverall bit rate mode : Variable\nOverall bit rate : 771 Kbps\nEncoded date : UTC 2015-05-26 04:54:33\nTagged date : UTC 2015-05-26 04:54:33\n\nVideo\nID : 1\nFormat : AVC\nFormat/Info : Advanced Video Codec\nFormat profile : &lt;a class=&quot;__cf_email__&quot; href=&quot;/cdn-cgi/l/email-protection&quot; data-cfemail=&quot;e1a9888689a1add5cfd0&quot;&gt;[email&amp;#160;protected]&lt;/a&gt;&lt;script data-cfhash='f9e31' type=&quot;text/javascript&quot;&gt;\n/* &lt;![CDATA[ */!function(){try{var t=&quot;currentScript&quot;in document?document.currentScript:function(){for(var t=document.getElementsByTagName(&quot;script&quot;),e=t.length;e--;)if(t[e].getAttribute(&quot;data-cfhash&quot;))return t[e]}();if(t&amp;&amp;t.previousSibling){var e,r,n,i,c=t.previousSibling,a=c.getAttribute(&quot;data-cfemail&quot;);if(a){for(e=&quot;&quot;,r=parseInt(a.substr(0,2),16),n=2;a.length-n;n+=2)i=parseInt(a.substr(n,2),16)^r,e+=String.fromCharCode(i);e=document.createTextNode(e),c.parentNode.replaceChild(e,c)}t.parentNode.removeChild(t);}}catch(u){}}()/* ]]&gt; */&lt;/script&gt;\nFormat settings, CABAC : Yes\nFormat settings, ReFrames : 12 frames\nCodec ID : avc1\nCodec ID/Info : Advanced Video Coding\nDuration : 2h 5mn\nBit rate : 685 Kbps\nMaximum bit rate : 4 011 Kbps\nWidth : 1 280 pixels\nHeight : 536 pixels\nDisplay aspect ratio : 2.40:1\nFrame rate mode : Constant\nFrame rate : 23.976 fps\nColor space : YUV\nChroma subsampling : 4:2:0\nBit depth : 8 bits\nScan type : Progressive\nBits/(Pixel*Frame) : 0.042\nStream size : 616 MiB (89%)\nWriting library : x264 core 146 r2538 121396c\nEncoding settings : cabac=1 / ref=12 / deblock=1:-1:-1 / analyse=0x3:0x133 / me=umh / subme=9 / psy=1 / psy_rd=1.00:0.15 / mixed_ref=1 / me_range=24 / chroma_me=1 / trellis=2 / 8x8dct=1 / cqm=0 / deadzone=21,11 / fast_pskip=1 / chroma_qp_offset=-4 / threads=6 / lookahead_threads=1 / sliced_threads=0 / nr=0 / decimate=1 / interlaced=0 / bluray_compat=0 / constrained_intra=0 / bframes=11 / b_pyramid=2 / b_adapt=2 / b_bias=0 / direct=3 / weightb=1 / open_gop=0 / weightp=2 / keyint=240 / keyint_min=23 / scenecut=40 / intra_refresh=0 / rc_lookahead=140 / rc=2pass / mbtree=1 / bitrate=685 / ratetol=1.0 / qcomp=0.60 / qpmin=0 / qpmax=69 / qpstep=4 / cplxblur=20.0 / qblur=0.5 / vbv_maxrate=62500 / vbv_bufsize=78125 / nal_hrd=none / filler=0 / ip_ratio=1.40 / aq=1:1.00\nEncoded date : UTC 2015-05-26 04:54:33\nTagged date : UTC 2015-05-26 04:55:04\nColor primaries : BT.709\nTransfer characteristics : BT.709\nMatrix coefficients : BT.709\nColor range : Limited\n\nAudio\nID : 2\nFormat : AAC\nFormat/Info : Advanced Audio Codec\nFormat profile : HE-AAC / LC\nCodec ID : 40\nDuration : 2h 5mn\nBit rate mode : Variable\nBit rate : 82.7 Kbps\nMaximum bit rate : 110 Kbps\nChannel(s) : 2 channels\nChannel positions : Front: L R\nSampling rate : 48.0 KHz / 24.0 KHz\nCompression mode : Lossy\nStream size : 74.5 MiB (11%)\nLanguage : English\nEncoded date : UTC 2015-05-26 04:54:57\nTagged date : UTC 2015-05-26 04:55:04\n\nMenu\n00:00:00.000 : 00:00:00.000\n00:02:37.157 : 00:02:37.157\n00:12:11.773 : 00:12:11.773\n00:24:17.539 : 00:24:17.539\n00:32:14.683 : 00:32:14.683\n00:40:05.403 : 00:40:05.403\n00:47:23.466 : 00:47:23.466\n00:53:23.242 : 00:53:23.242\n01:00:16.613 : 01:00:16.613\n01:07:17.033 : 01:07:17.033\n01:11:16.731 : 01:11:16.731\n01:21:54.660 : 01:21:54.660\n01:27:25.699 : 01:27:25.699\n01:38:29.779 : 01:38:29.779\n01:46:35.347 : 01:46:35.347\n01:52:26.365 : 01:52:26.365","torrent":{"xt":"urn:btih:1c60115390e5afb6a10344985aa52a052a69c32a","amp;dn":"The+Fifth+Element+1997+720p+Brrip+x264+SSloco","amp;tr":["udp%3A%2F%2Ftracker.openbittorrent.com%3A80","udp%3A%2F%2Fopen.demonii.com%3A1337","udp%3A%2F%2Ftracker.coppersurfer.tk%3A6969","udp%3A%2F%2Fexodus.desync.com%3A6969"],"infoHash":"1c60115390e5afb6a10344985aa52a052a69c32a","infoHashBuffer":{"type":"Buffer","data":[28,96,17,83,144,229,175,182,161,3,68,152,90,165,42,5,42,105,195,42]},"announce":[],"urlList":[]}}